{"title":"The.Strain.S02.720p.BluRay.x264-DEMAND [Season 2 Two Complete]","uid":15580345,"size":31360581429,"categoryP":"video","categoryS":"hd___tv_shows","magnet":"?xt=urn:btih:636820184f86da0431148a3227a3d471b47c5cc5&amp;dn=The.Strain.S02.720p.BluRay.x264-DEMAND+%5BSeason+2+Two+Complete%5D&amp;tr=udp%3A%2F%2Ftracker.leechers-paradise.org%3A6969&amp;tr=udp%3A%2F%2Fzer0day.ch%3A1337&amp;tr=udp%3A%2F%2Fopen.demonii.com%3A1337&amp;tr=udp%3A%2F%2Ftracker.coppersurfer.tk%3A6969&amp;tr=udp%3A%2F%2Fexodus.desync.com%3A6969","seeders":14,"leechers":6,"uploader":"GoodFilms","files":41,"time":1471397248,"description":"http://www.imdb.com/title/tt2654620/\r\n\r\nVideo\r\nID                                       : 1\r\nFormat                                   : AVC\r\nFormat/Info                              : Advanced Video Codec\r\nFormat profile                           :   \r\nFormat settings, CABAC                   : Yes\r\nFormat settings, ReFrames                : 5 frames\r\nCodec ID                                 : V_MPEG4/ISO/AVC\r\nDuration                                 : 58mn 14s\r\nBit rate                                 : 4 991 Kbps\r\nWidth                                    : 1 280 pixels\r\nHeight                                   : 720 pixels\r\nDisplay aspect ratio                     : 16:9\r\nFrame rate mode                          : Constant\r\nFrame rate                               : 23.976 fps\r\nColor space                              : YUV\r\nChroma subsampling                       : 4:2:0\r\nBit depth                                : 8 bits\r\nScan type                                : Progressive\r\nBits/(Pixel*Frame)                       : 0.226\r\nStream size                              : 2.03 GiB (77%)\r\nWriting library                          : x264 core 148 r2692 64f4e24\r\nLanguage                                 : English\r\nDefault                                  : Yes\r\nForced                                   : No\r\n\r\nAudio\r\nID                                       : 2\r\nFormat                                   : DTS\r\nFormat/Info                              : Digital Theater Systems\r\nMode                                     : 16\r\nFormat settings, Endianness              : Big\r\nCodec ID                                 : A_DTS\r\nDuration                                 : 58mn 14s\r\nBit rate mode                            : Constant\r\nBit rate                                 : 1 509 Kbps\r\nChannel(s)                               : 6 channels\r\nChannel positions                        : Front: L C R, Side: L R, LFE\r\nSampling rate                            : 48.0 KHz\r\nFrame rate                               : 93.750 fps (512 spf)\r\nBit depth                                : 24 bits\r\nCompression mode                         : Lossy\r\nStream size                              : 629 MiB (23%)\r\nLanguage                                 : English\r\nDefault                                  : Yes\r\nForced                                   : No\r\n\r\nMenu\r\n00:00:00.000                             : en:00:00:00.000\r\n00:01:13.615                             : en:00:01:13.615\r\n00:10:37.470                             : en:00:10:37.470\r\n00:17:13.241                             : en:00:17:13.241\r\n00:23:19.148                             : en:00:23:19.148\r\n00:25:14.012                             : en:00:25:14.012\r\n00:30:01.341                             : en:00:30:01.341\r\n00:34:57.470                             : en:00:34:57.470\r\n00:41:19.560                             : en:00:41:19.560\r\n00:42:24.709                             : en:00:42:24.709\r\n00:48:03.506                             : en:00:48:03.506\r\n00:54:48.160                             : en:00:54:48.160","torrent":{"xt":"urn:btih:636820184f86da0431148a3227a3d471b47c5cc5","amp;dn":"The.Strain.S02.720p.BluRay.x264-DEMAND+%5BSeason+2+Two+Complete%5D","amp;tr":["udp%3A%2F%2Ftracker.leechers-paradise.org%3A6969","udp%3A%2F%2Fzer0day.ch%3A1337","udp%3A%2F%2Fopen.demonii.com%3A1337","udp%3A%2F%2Ftracker.coppersurfer.tk%3A6969","udp%3A%2F%2Fexodus.desync.com%3A6969"],"infoHash":"636820184f86da0431148a3227a3d471b47c5cc5","infoHashBuffer":{"type":"Buffer","data":[99,104,32,24,79,134,218,4,49,20,138,50,39,163,212,113,180,124,92,197]},"announce":[],"urlList":[]}}